<?xml version="1.0" encoding="UTF-8"?><svg id="Layer_1" xmlns="http://www.w3.org/2000/svg" viewBox="0 0 978.07 546.92"><defs><style>.cls-1{fill:#fff;}</style></defs><path class="cls-1" d="M489.11,19.54C230.43,19.54,19.92,229.97,19.92,488.65c0,12.59.48,25.12,1.52,37.5h138.25c-1.44-12.32-2.13-24.84-2.13-37.5,0-93.93,39.29-178.85,102.33-239.27-4.47,18.17-6.88,37.09-6.88,56.63,0,100.13,62.62,185.87,150.7,220.14,26.49,10.32,55.33,15.96,85.4,15.96s58.91-5.64,85.4-15.96c88.09-34.27,150.71-120.01,150.71-220.14,0-19.54-2.41-38.47-6.88-56.63,62.97,60.42,102.26,145.34,102.26,239.27,0,12.66-.69,25.19-2.13,37.5h138.25c1.03-12.39,1.52-24.91,1.52-37.5,0-258.68-210.44-469.11-469.11-469.11ZM511.16,418.25c-61.87,0-112.24-50.37-112.24-112.24s50.37-112.24,112.24-112.24,112.24,50.37,112.24,112.24-50.37,112.24-112.24,112.24Z"/></svg>