<?xml version="1.0" encoding="UTF-8"?><svg id="Layer_1" xmlns="http://www.w3.org/2000/svg" viewBox="0 0 1920 714.07"><defs><style>.cls-1{fill:#231f20;}</style></defs><path class="cls-1" d="M300.54,399.82c0-45.98-27.21-70.38-64.75-70.38-43.16,0-69.44,30.97-69.44,70.38v289.04c0,2.58-2.09,4.68-4.68,4.68H14.32c-2.58,0-4.68-2.09-4.68-4.68V15.08h156.71v236.47c18.77-29.09,60.06-62.87,121.99-62.87,153.89,0,168.91,131.37,168.91,231.78v268.4c0,2.58-2.09,4.68-4.68,4.68h-147.36c-2.58,0-4.68-2.09-4.68-4.68v-289.04Z"/><path class="cls-1" d="M494.29,16.15v678.45h136.73V16.15h-136.73Z"/><path class="cls-1" d="M1294.24,15.05v678.52h138.6V15.05h-138.6Z"/><path class="cls-1" d="M1697.39,188.67c-81.62,0-148.23,26.29-200.8,61.04l58.22,105.08c38.47-18.79,80.65-30.97,123.8-30.97,50.72,0,75.08,23.47,75.08,53.47v17.82c-17.82-7.5-51.61-17.82-94.76-17.82-116.37,0-191.44,64.76-191.44,163.3,0,106.94,86.36,165.16,182.98,165.16,43.08,0,75.35-10.18,99.58-28.83,2.06-1.58,4.4-2.27,6.68-2.27,4.54,0,8.88,2.82,10.39,7.64,2.06,6.68,8.26,11.29,15.28,11.29h128.07v-304.99c0-112.65-43.22-199.91-213.05-199.91ZM1690.85,585.59c-36.61,0-66.61-17.82-66.61-50.65s28.15-52.58,65.65-52.58,66.61,18.79,66.61,52.58-28.15,50.65-65.65,50.65Z"/><path class="cls-1" d="M963.46,186.69c-258.68,0-469.18,210.44-469.18,469.11,0,12.59.48,25.12,1.52,37.5h138.25c-1.44-12.32-2.13-24.84-2.13-37.5,0-93.93,39.29-178.85,102.33-239.27-4.47,18.17-6.88,37.09-6.88,56.63,0,100.13,62.62,185.87,150.7,220.14,26.49,10.32,55.33,15.96,85.4,15.96s58.91-5.64,85.4-15.96c88.09-34.27,150.71-120.01,150.71-220.14,0-19.54-2.41-38.47-6.88-56.63,62.97,60.42,102.26,145.34,102.26,239.27,0,12.66-.69,25.19-2.13,37.5h138.25c1.03-12.39,1.52-24.91,1.52-37.5,0-258.68-210.44-469.11-469.11-469.11ZM985.51,585.41c-61.87,0-112.24-50.37-112.24-112.24s50.37-112.24,112.24-112.24,112.24,50.37,112.24,112.24-50.37,112.24-112.24,112.24Z"/></svg>